<svg width="30" height="30" viewBox="0 0 30 30" fill="none" xmlns="http://www.w3.org/2000/svg">
<path d="M20 22.5C20.663 22.5 21.2989 22.7634 21.7678 23.2322C22.2366 23.7011 22.5 24.337 22.5 25C22.5 25.663 22.2366 26.2989 21.7678 26.7678C21.2989 27.2366 20.663 27.5 20 27.5C19.337 27.5 18.7011 27.2366 18.2322 26.7678C17.7634 26.2989 17.5 25.663 17.5 25C17.5 24.337 17.7634 23.7011 18.2322 23.2322C18.7011 22.7634 19.337 22.5 20 22.5ZM20 23.75C19.6685 23.75 19.3505 23.8817 19.1161 24.1161C18.8817 24.3505 18.75 24.6685 18.75 25C18.75 25.3315 18.8817 25.6495 19.1161 25.8839C19.3505 26.1183 19.6685 26.25 20 26.25C20.3315 26.25 20.6495 26.1183 20.8839 25.8839C21.1183 25.6495 21.25 25.3315 21.25 25C21.25 24.6685 21.1183 24.3505 20.8839 24.1161C20.6495 23.8817 20.3315 23.75 20 23.75ZM8.75 22.5C9.41304 22.5 10.0489 22.7634 10.5178 23.2322C10.9866 23.7011 11.25 24.337 11.25 25C11.25 25.663 10.9866 26.2989 10.5178 26.7678C10.0489 27.2366 9.41304 27.5 8.75 27.5C8.08696 27.5 7.45107 27.2366 6.98223 26.7678C6.51339 26.2989 6.25 25.663 6.25 25C6.25 24.337 6.51339 23.7011 6.98223 23.2322C7.45107 22.7634 8.08696 22.5 8.75 22.5ZM8.75 23.75C8.41848 23.75 8.10054 23.8817 7.86612 24.1161C7.6317 24.3505 7.5 24.6685 7.5 25C7.5 25.3315 7.6317 25.6495 7.86612 25.8839C8.10054 26.1183 8.41848 26.25 8.75 26.25C9.08152 26.25 9.39946 26.1183 9.63388 25.8839C9.8683 25.6495 10 25.3315 10 25C10 24.6685 9.8683 24.3505 9.63388 24.1161C9.39946 23.8817 9.08152 23.75 8.75 23.75ZM22.5 7.5H5.3375L8.525 15H18.75C19.1625 15 19.525 14.8 19.75 14.5L23.5 9.5C23.6625 9.2875 23.75 9.025 23.75 8.75C23.75 8.41848 23.6183 8.10054 23.3839 7.86612C23.1495 7.6317 22.8315 7.5 22.5 7.5ZM18.75 16.25H8.5875L7.625 18.2L7.5 18.75C7.5 19.0815 7.6317 19.3995 7.86612 19.6339C8.10054 19.8683 8.41848 20 8.75 20H22.5V21.25H8.75C8.08696 21.25 7.45107 20.9866 6.98223 20.5178C6.51339 20.0489 6.25 19.413 6.25 18.75C6.24963 18.3259 6.35717 17.9086 6.5625 17.5375L7.4625 15.7L2.925 5H1.25V3.75H3.75L4.8125 6.25H22.5C23.163 6.25 23.7989 6.51339 24.2678 6.98223C24.7366 7.45107 25 8.08696 25 8.75C25 9.375 24.7875 9.9 24.4375 10.325L20.8 15.1875C20.35 15.825 19.6 16.25 18.75 16.25Z" fill="black"/>
</svg>
